<?xml version="1.0" encoding="utf-8"?><svg viewBox="0 0 20 23" xmlns="http://www.w3.org/2000/svg" xmlns:xlink="http://www.w3.org/1999/xlink"><style>:root>svg{display:none}:root>svg:target{display:block}</style><svg fill="none" viewBox="0 0 18 22" id="android_logo" xmlns="http://www.w3.org/2000/svg"><path d="M4.645 0a.41.41 0 0 0-.398.439.407.407 0 0 0 .074.205l1.21 1.742a5.703 5.703 0 0 0-2.193 3.718h11.324a5.703 5.703 0 0 0-2.193-3.718L13.68.644a.407.407 0 0 0-.527-.595.409.409 0 0 0-.146.131l-1.22 1.759a5.695 5.695 0 0 0-5.573 0L4.993.18A.409.409 0 0 0 4.646 0Zm1.9 2.842c.452 0 .819.365.819.815a.817.817 0 0 1-1.637 0c0-.45.367-.815.818-.815Zm4.91 0c.451 0 .818.365.818.815a.817.817 0 0 1-1.637 0c0-.45.367-.815.819-.815ZM.817 7.735A.817.817 0 0 0 0 8.551v6.524a.817.817 0 0 0 1.636 0V8.551a.817.817 0 0 0-.818-.816Zm2.455 0v8.156c0 .901.732 1.631 1.636 1.631v2.855c0 .675.55 1.223 1.227 1.223.678 0 1.228-.548 1.228-1.223v-2.855h3.272v2.855c0 .675.55 1.223 1.228 1.223.677 0 1.227-.548 1.227-1.223v-2.855c.904 0 1.636-.73 1.636-1.631V7.735H3.273Zm13.909 0a.817.817 0 0 0-.818.816v6.524a.817.817 0 0 0 1.636 0V8.551a.817.817 0 0 0-.818-.816Z" fill="#0FBE21"/></svg><svg fill="none" viewBox="0 0 18 23" id="apple_logo" xmlns="http://www.w3.org/2000/svg"><path d="M17.437 7.53C17.339 7.59 15 8.889 15 11.766c.11 3.282 2.951 4.432 3 4.432-.049.062-.429 1.568-1.555 3.147-.893 1.36-1.885 2.731-3.391 2.731-1.433 0-1.947-.906-3.6-.906-1.776 0-2.278.906-3.637.906-1.506 0-2.572-1.445-3.514-2.792C1.08 17.521.038 14.754.002 12.097c-.025-1.408.245-2.792.93-3.967.967-1.642 2.694-2.756 4.579-2.792 1.445-.049 2.73.992 3.612.992.845 0 2.425-.992 4.212-.992.771 0 2.828.233 4.102 2.192ZM9.001 5.057c-.257-1.286.453-2.572 1.114-3.392C10.96.673 12.295 0 13.445 0a4.794 4.794 0 0 1-1.224 3.465c-.747.992-2.033 1.739-3.22 1.592Z" fill="#000"/></svg><svg fill="none" viewBox="0 0 20 20" id="close-btn" xmlns="http://www.w3.org/2000/svg"><path d="m13.184 10 6.146-6.111c.894-.889.894-2.222 0-3.111C18.994.333 18.436 0 17.877 0s-1.117.222-1.564.667l-6.257 6.222L3.91.778c-.894-.89-2.347-.89-3.129 0A1.94 1.94 0 0 0 0 2.333C0 3 .223 3.444.67 3.89L6.816 10 .67 16.111c-.335.445-.67 1-.67 1.667 0 .555.223 1.11.67 1.555A2.212 2.212 0 0 0 2.235 20c.558 0 1.117-.222 1.564-.667l6.145-6.11 6.145 6.11c.894.89 2.347.89 3.129 0 .894-.889.894-2.333 0-3.11L13.184 10Z" fill="#334152"/></svg><svg fill="none" viewBox="0 0 18 19" id="gear" xmlns="http://www.w3.org/2000/svg"><path d="m17.657 11.343-1.324-.193a.219.219 0 0 1-.186-.135l-.429-1.035a.218.218 0 0 1 .036-.228l.792-1.063a.372.372 0 0 0-.02-.505l-.627-.626a.371.371 0 0 0-.504-.02l-1.064.792a.22.22 0 0 1-.227.036l-1.036-.43a.221.221 0 0 1-.136-.186l-.192-1.323a.372.372 0 0 0-.37-.343h-.886a.372.372 0 0 0-.37.343L10.92 7.75a.219.219 0 0 1-.135.186l-1.037.43a.22.22 0 0 1-.227-.036l-1.064-.792a.372.372 0 0 0-.504.02l-.627.626a.372.372 0 0 0-.02.505L8.1 9.753c.054.062.068.15.036.227l-.429 1.035a.22.22 0 0 1-.186.136l-1.324.192a.372.372 0 0 0-.343.37v.887c0 .194.15.356.343.37l1.324.192a.22.22 0 0 1 .186.136l.43 1.036a.22.22 0 0 1-.037.227l-.791 1.064a.372.372 0 0 0 .02.505l.626.626a.372.372 0 0 0 .504.02l1.064-.792a.22.22 0 0 1 .227-.036l1.037.429a.221.221 0 0 1 .135.187l.192 1.323a.372.372 0 0 0 .37.343h.887c.194 0 .355-.15.37-.343l.192-1.323a.222.222 0 0 1 .136-.187l1.036-.429a.22.22 0 0 1 .227.036l1.064.792a.371.371 0 0 0 .504-.02l.627-.626a.372.372 0 0 0 .02-.505l-.792-1.064a.22.22 0 0 1-.036-.227l.43-1.036a.22.22 0 0 1 .186-.136l1.323-.192A.371.371 0 0 0 18 12.6v-.886a.372.372 0 0 0-.343-.371Zm-4.274 2.27c-.39.389-.906.603-1.456.603-.55 0-1.068-.214-1.457-.603a2.048 2.048 0 0 1-.603-1.456c0-.55.215-1.067.603-1.456.39-.39.907-.603 1.457-.603s1.067.213 1.456.603c.389.388.603.906.603 1.456 0 .55-.214 1.067-.603 1.456Z" fill="#002E88"/><path d="M6.556 8.978a.291.291 0 0 0 .182-.351L6.528 7.6a.174.174 0 0 1 .05-.174l.65-.592a.173.173 0 0 1 .178-.034l.995.302a.292.292 0 0 0 .367-.149l.296-.628a.29.29 0 0 0-.12-.377l-.866-.575a.173.173 0 0 1-.087-.159l.042-.878a.174.174 0 0 1 .1-.149l.927-.494a.29.29 0 0 0 .154-.364l-.235-.654a.292.292 0 0 0-.352-.182l-1.027.21a.171.171 0 0 1-.174-.051l-.591-.65a.17.17 0 0 1-.034-.177L7.102.83a.291.291 0 0 0-.149-.367L6.325.167a.292.292 0 0 0-.378.12l-.574.866a.173.173 0 0 1-.158.087L4.337 1.2a.174.174 0 0 1-.15-.102L3.694.172a.291.291 0 0 0-.365-.155l-.653.236a.29.29 0 0 0-.182.35l.21 1.029a.172.172 0 0 1-.051.173l-.65.592a.174.174 0 0 1-.178.034L.83 2.129a.292.292 0 0 0-.367.149l-.295.628a.291.291 0 0 0 .119.378l.866.574c.057.032.09.093.087.158l-.041.878a.171.171 0 0 1-.101.15l-.926.494a.29.29 0 0 0-.155.363l.236.654a.292.292 0 0 0 .35.183l1.029-.21a.172.172 0 0 1 .173.05l.592.65a.173.173 0 0 1 .034.178l-.302.995a.292.292 0 0 0 .149.367l.628.295a.292.292 0 0 0 .378-.119l.574-.867a.172.172 0 0 1 .158-.086l.879.041a.174.174 0 0 1 .15.102l.493.925a.292.292 0 0 0 .364.155l.654-.236ZM5.163 6.135a1.606 1.606 0 0 1-1.235-.058 1.604 1.604 0 0 1-.832-.915 1.605 1.605 0 0 1 .058-1.234c.184-.39.509-.686.915-.832a1.601 1.601 0 0 1 1.234.059c.39.183.686.507.832.913.146.406.125.844-.058 1.235-.184.39-.509.685-.914.832Z" fill="#002E88"/></svg><svg fill="none" viewBox="0 0 18 17" id="iMac_logo" xmlns="http://www.w3.org/2000/svg"><path fill-rule="evenodd" clip-rule="evenodd" d="M17.1 14.22h-5.94v2.16h.81a.27.27 0 1 1 0 .54H6.03a.27.27 0 1 1 0-.54h.81v-2.16H.9a.9.9 0 0 1-.9-.9V11.7h18v1.62a.9.9 0 0 1-.9.9Z" fill="#BDC3C7"/><path fill-rule="evenodd" clip-rule="evenodd" d="M6.84 14.22h4.32v.36H6.84v-.36Z" fill="#95A5A5"/><path fill-rule="evenodd" clip-rule="evenodd" d="M.9 0h16.2a.9.9 0 0 1 .9.9v10.8H0V.9A.9.9 0 0 1 .9 0Z" fill="#2C3E50"/><path fill-rule="evenodd" clip-rule="evenodd" d="M.9.9h16.2v9.9H.9V.9Z" fill="#35495E"/><path d="M9 13.32a.36.36 0 1 0 0-.72.36.36 0 0 0 0 .72Z" fill="#35495E"/></svg><svg fill="none" viewBox="0 0 14 14" id="key" xmlns="http://www.w3.org/2000/svg"><path d="M7.408 3.967A5.226 5.226 0 0 0 5.25 3.5a5.25 5.25 0 1 0 5.25 5.25c0-.77-.17-1.499-.467-2.158l.467-.467v-1.75h1.75v-1.75H14V0h-2.625L7.408 3.967ZM7 8.75a1.749 1.749 0 1 1-3.5 0 1.749 1.749 0 1 1 3.5 0Z" fill="#0FBE21"/></svg><svg fill="none" viewBox="0 0 18 21" id="license_logo" xmlns="http://www.w3.org/2000/svg"><path d="M2.126.064a.956.956 0 0 0-.43.394c-.059.107-.067.434-.079 3.466l-.012 3.352-.365.016c-.445.02-.711.127-.934.366-.322.35-.306.155-.306 3.765 0 3.188 0 3.204.084 3.387.214.462.556.673 1.156.705l.365.02.012 2.133c.012 2.34.004 2.237.259 2.48.258.247-.243.23 7.124.23s6.866.017 7.124-.23c.255-.243.247-.14.259-2.48l.012-2.133.365-.02c.6-.032.942-.243 1.156-.705.084-.183.084-.199.084-3.387 0-3.61.016-3.415-.306-3.765-.223-.239-.489-.346-.934-.366l-.37-.016-.003-1.202c-.004-.657-.016-1.242-.032-1.298-.032-.12-3.95-4.617-4.105-4.712C12.155.004 11.702 0 7.204 0 2.881.004 2.249.012 2.126.064Zm9.536 2.842v2.11l.115.126.116.132 1.851.012 1.852.012v1.986H2.404V.796h9.258v2.11Zm-8.106 6.93v1.193l.755-1.126c.418-.621.78-1.158.81-1.198.049-.064.124-.068.792-.06l.739.012-.855 1.095a55.955 55.955 0 0 0-.878 1.142c-.008.028.398.736.902 1.572.509.84.934 1.536.942 1.552.008.02-.302.032-.695.032h-.712l-.647-1.146a75.179 75.179 0 0 0-.668-1.17c-.016-.016-.131.1-.258.254l-.227.283v1.779H2.364V8.637h1.192v1.198Zm7.065-.713-.012.49-1.06.011-1.066.008V10.747l1.006.008 1.001.011.012.486.012.49H8.483V13.015h2.226V14.05H7.29V8.637H10.633l-.012.486Zm2.102.031c.12.275.33.789.477 1.147.143.354.27.637.282.625.016-.012.151-.343.306-.729.159-.386.362-.895.46-1.13l.176-.43h1.375l-.116.207c-.067.115-.46.816-.878 1.552l-.759 1.346-.008 1.142-.012 1.146-.604.012-.607.012v-2.229l-.74-1.385c-.405-.76-.79-1.48-.854-1.596l-.115-.207.703.008.704.012.21.497Zm2.873 8.28v1.91H2.404V15.523h13.192v1.91Z" fill="#FF6B00"/></svg><svg fill="none" viewBox="0 0 18 22" id="msoffice_logo" xmlns="http://www.w3.org/2000/svg"><path d="M0 17.493V4.31L11.662 0 18 2.028v17.747l-6.338 1.91L0 17.493l11.662 1.404V3.549L4.056 5.324V15.72L0 17.493Z" fill="#EB3C00"/></svg><svg fill="none" viewBox="0 0 14 11" id="ok" xmlns="http://www.w3.org/2000/svg"><path fill-rule="evenodd" clip-rule="evenodd" d="M14 2.2 5.386 11l-.002-.001V11L0 5.5l2.153-2.2 3.231 3.3L11.847 0 14 2.2Z" fill="#0FBE21"/></svg><svg fill="none" viewBox="0 0 18 18" id="windows_logo" xmlns="http://www.w3.org/2000/svg"><path d="m0 2.546 7.356-.997.003 7.067-7.352.042L0 2.546Zm7.353 6.885.005 7.074-7.352-1.007V9.383l7.347.048Zm.891-8.013L17.998 0v8.527l-9.754.077V1.418ZM18 9.498l-.002 8.487-9.754-1.37-.013-7.134L18 9.497Z" fill="#00ADEF"/></svg></svg>