<svg width="64" height="64" viewBox="0 0 64 64" fill="none" xmlns="http://www.w3.org/2000/svg">
<path d="M33.863 18.137C30.852 16.777 27.52 16 24 16C10.746 16 -1.62842e-06 26.746 -1.04907e-06 40C-4.69723e-07 53.254 10.746 64 24 64C37.254 64 48 53.254 48 40C48 36.48 47.223 33.148 45.863 30.137L48 28L48 20L56 20L56 12L64 12L64 -2.79753e-06L52 -2.27299e-06L33.863 18.137ZM32 40C32 44.422 28.422 48 24 48C19.578 48 16 44.422 16 40C16 35.578 19.578 32 24 32C28.422 32 32 35.578 32 40Z" fill="#0FBE21"/>
</svg>
